Coordinates
version=1
nRows=35
nColumns=18
inDegrees=yes

Units are S.I. units (second, meters, Newtons, ...)
If the header above contains a line with 'inDegrees', this indicates whether rotational values are in degrees (yes) or radians (no).

endheader
time	ground_thorax_rot_x	ground_thorax_rot_y	ground_thorax_rot_z	ground_thorax_tx	ground_thorax_ty	ground_thorax_tz	clav_prot	clav_elev	scapula_abduction	scapula_elevation	scapula_upward_rot	scapula_winging	plane_elv	shoulder_elv	axial_rot	elbow_flexion	pro_sup
      0.00000000	      1.46916427	     -7.54633892	    -11.20538166	      0.00000000	      0.00000000	      0.00000000	    -18.49268189	     -4.14386990	     -4.70967729	     -3.99570089	     14.20524427	      4.61507041	    -21.66956141	     14.44638308	     47.52565340	      0.00000000	     34.32000000
      0.01000000	      1.34121638	     -7.48286193	    -11.26510434	      0.00000000	      0.00000000	      0.00000000	    -18.54689272	     -4.35850708	     -4.94410270	     -4.07890236	     13.88278127	      4.77234006	    -20.35360299	     14.96279589	     43.08747976	      0.00000000	     34.32000000
      0.02000000	      1.30599596	     -7.47304215	    -11.26252731	      0.00000000	      0.00000000	      0.00000000	    -18.59719722	     -4.42718536	     -5.10282510	     -4.09566729	     13.73515885	      4.83948291	    -20.16541388	     15.03974025	     42.51983930	      0.00000000	     34.32000000
      0.03000000	      1.31405852	     -7.43889135	    -11.35629161	      0.00000000	      0.00000000	      0.00000000	    -18.72210725	     -4.44835275	     -5.24771282	     -4.14899521	     13.85259627	      4.83684465	    -20.28918342	     14.91666872	     42.32810862	      0.00000000	     34.32000000
      0.04000000	      1.22958018	     -7.45937979	    -11.26749927	      0.00000000	      0.00000000	      0.00000000	    -18.68436709	     -4.51763854	     -5.29410985	     -4.14287356	     13.63308933	      4.90794404	    -20.10530609	     15.06036082	     41.92960142	      0.00000000	     34.32000000
      0.05000000	      1.42876238	     -7.49406110	    -11.25976920	      0.00000000	      0.00000000	      0.00000000	    -18.71485599	     -4.21610876	     -5.11218680	     -4.04938427	     14.15428165	      4.68687908	    -21.74238332	     14.25673377	     48.96675628	      0.00000000	     34.32000000
      0.06000000	      1.31400269	     -7.46618625	    -11.27859158	      0.00000000	      0.00000000	      0.00000000	    -18.72103825	     -4.33922163	     -5.20683858	     -4.09408251	     13.96262377	      4.77460704	    -20.92966964	     14.63135896	     45.00182315	      0.00000000	     34.32000000
      0.07000000	      1.20571761	     -7.44554595	    -11.33079764	      0.00000000	      0.00000000	      0.00000000	    -18.70809856	     -4.47256432	     -5.20540280	     -4.17209995	     13.87303475	      4.83677285	    -20.96467397	     14.70022002	     44.85962056	      0.00000000	     34.32000000
      0.08000000	      1.18864560	     -7.45243507	    -11.32730966	      0.00000000	      0.00000000	      0.00000000	    -18.71332351	     -4.45356436	     -5.21308103	     -4.16048048	     13.88325824	      4.82934223	    -20.95056701	     14.71657390	     44.87086588	      0.00000000	     34.32000000
      0.09000000	      1.38918661	     -7.46252618	    -11.23033046	      0.00000000	      0.00000000	      0.00000000	    -18.73734279	     -4.17717642	     -5.19956242	     -4.00383844	     14.08874270	      4.69503667	    -21.47814936	     14.28473003	     49.75323341	      0.00000000	     34.32000000
      0.10000000	      1.27663941	     -7.43211974	    -11.31584149	      0.00000000	      0.00000000	      0.00000000	    -18.73577777	     -4.40814358	     -5.32035947	     -4.10167187	     13.78596412	      4.84325594	    -19.84961324	     15.15193515	     40.72116008	      0.00000000	     34.32000000
      0.11000000	      1.30257649	     -7.38686471	    -11.31654227	      0.00000000	      0.00000000	      0.00000000	    -18.72951345	     -4.39167300	     -5.32016265	     -4.08558476	     13.77399237	      4.84007578	    -19.84166495	     15.10147151	     40.74633454	      0.00000000	     34.32000000
      0.12000000	      1.48068380	     -7.45849075	    -11.18059785	      0.00000000	      0.00000000	      0.00000000	    -18.64905702	     -4.15815650	     -5.25716571	     -3.89272213	     13.73550483	      4.76480708	    -19.15242016	     15.33645002	     39.60182802	      0.00000000	     34.32000000
      0.13000000	      1.33963529	     -7.40006874	    -11.24902424	      0.00000000	      0.00000000	      0.00000000	    -18.77108102	     -4.29596863	     -5.24814811	     -4.08861276	     14.05873835	      4.74486753	    -21.31462843	     14.44508049	     45.72524981	      0.00000000	     34.32000000
      0.14000000	      1.36771325	     -7.38855774	    -11.33373646	      0.00000000	      0.00000000	      0.00000000	    -18.80138185	     -4.36498611	     -5.38394115	     -4.09931291	     13.89053604	      4.81375862	    -20.01314104	     14.88460695	     42.46916353	      0.00000000	     34.32000000
      0.15000000	      1.16242658	     -7.50730858	    -11.30052069	      0.00000000	      0.00000000	      0.00000000	    -18.61504259	     -4.51510521	     -5.09894861	     -4.17023847	     13.75977265	      4.86383638	    -20.70171198	     14.80636541	     44.13993225	      0.00000000	     34.32000000
      0.16000000	      1.34581887	     -7.34091697	    -11.37616346	      0.00000000	      0.00000000	      0.00000000	    -18.86347116	     -4.31733404	     -5.41167496	     -4.10688782	     14.04731754	      4.76895050	    -20.60324336	     14.57829680	     44.26370548	      0.00000000	     34.32000000
      0.17000000	      1.28468668	     -7.35923072	    -11.27618821	      0.00000000	      0.00000000	      0.00000000	    -18.80492864	     -4.31332391	     -5.46090537	     -4.03403695	     13.79082172	      4.82339177	    -19.85388728	     14.88693721	     42.18525980	      0.00000000	     34.32000000
      0.18000000	      1.41191158	     -7.38936139	    -11.19134980	      0.00000000	      0.00000000	      0.00000000	    -18.77518730	     -4.12984753	     -5.25015661	     -3.98172978	     14.13495617	      4.67505285	    -21.23476449	     14.39738383	     46.55567201	      0.00000000	     34.32000000
      0.19000000	      1.45279467	     -7.38701288	    -11.19470912	      0.00000000	      0.00000000	      0.00000000	    -18.77628847	     -4.14218247	     -5.25176456	     -3.98988479	     14.13009466	      4.67998506	    -21.22912496	     14.40924680	     46.56492519	      0.00000000	     34.32000000
      0.20000000	      1.65913429	     -7.49287475	    -11.18881512	      0.00000000	      0.00000000	      0.00000000	    -18.63147524	     -4.03664514	     -5.16393123	     -3.83953045	     13.89129156	      4.68541738	    -19.31460318	     15.16715349	     42.76182312	      0.00000000	     34.32000000
      0.21000000	      1.22341979	     -7.33932085	    -11.25810651	      0.00000000	      0.00000000	      0.00000000	    -18.75103909	     -4.52688035	     -5.28907192	     -4.20646628	     13.83683394	      4.87014896	    -20.97947394	     15.04293267	     41.77251860	      0.00000000	     34.32000000
      0.22000000	      1.47434371	     -7.59508343	    -11.27656125	      0.00000000	      0.00000000	      0.00000000	    -18.51458251	     -4.23647901	     -4.74504141	     -4.05932371	     14.17328200	      4.65556715	    -21.59925929	     14.74838738	     45.35533535	      0.00000000	     34.32000000
      0.23000000	      1.38731075	     -7.58413543	    -11.23856354	      0.00000000	      0.00000000	      0.00000000	    -18.48884531	     -4.32258045	     -4.83630739	     -4.05480366	     13.90739162	      4.74506582	    -20.90470280	     15.01929705	     43.92259567	      0.00000000	     34.32000000
      0.24000000	      1.34752367	     -7.55918380	    -11.24101936	      0.00000000	      0.00000000	      0.00000000	    -18.49114412	     -4.31232409	     -4.83451185	     -4.05070582	     13.92142139	      4.73888783	    -20.89746348	     15.00573727	     43.93180086	      0.00000000	     34.32000000
      0.25000000	      1.45027128	     -7.53592043	    -11.20461579	      0.00000000	      0.00000000	      0.00000000	    -18.60094672	     -4.09546347	     -4.90163797	     -3.96863627	     14.22135024	      4.61418106	    -21.61802313	     14.42041848	     47.28541092	      0.00000000	     34.32000000
      0.26000000	      1.35781333	     -7.53943909	    -11.24538821	      0.00000000	      0.00000000	      0.00000000	    -18.59816370	     -4.18071816	     -4.95115343	     -4.00081955	     14.09489362	      4.67212236	    -21.18813888	     14.58226753	     45.87456425	      0.00000000	     34.32000000
      0.27000000	      1.33487102	     -7.57379545	    -11.14507219	      0.00000000	      0.00000000	      0.00000000	    -18.53207258	     -4.10928167	     -4.88796426	     -3.92692569	     14.03386028	      4.65415278	    -21.27980929	     14.62149276	     45.75772322	      0.00000000	     34.32000000
      0.28000000	      1.37699705	     -7.55945207	    -11.17732333	      0.00000000	      0.00000000	      0.00000000	    -18.53339472	     -4.12151416	     -4.88450403	     -3.93769870	     14.03911504	      4.65735887	    -21.26549487	     14.60047038	     45.77079167	      0.00000000	     34.32000000
      0.29000000	      1.35881908	     -7.40193903	    -11.27777917	      0.00000000	      0.00000000	      0.00000000	    -18.69217965	     -4.23683488	     -5.19735860	     -4.00683721	     13.93395920	      4.74550641	    -20.43835986	     14.82450420	     43.31610611	      0.00000000	     34.32000000
      0.30000000	      1.39376200	     -7.30017079	    -11.22602578	      0.00000000	      0.00000000	      0.00000000	    -18.82828032	     -4.11218496	     -5.34396892	     -3.97240776	     14.14045438	      4.67636523	    -21.70267486	     14.16654717	     49.28561265	      0.00000000	     34.32000000
      0.31000000	      1.30991397	     -7.38592951	    -11.24205242	      0.00000000	      0.00000000	      0.00000000	    -18.73133904	     -4.20437089	     -5.19609671	     -4.01834960	     14.06580743	      4.70828250	    -21.42205807	     14.42858203	     46.69067095	      0.00000000	     34.32000000
      0.32000000	      1.47834401	     -7.45150312	    -11.19546172	      0.00000000	      0.00000000	      0.00000000	    -18.69945307	     -3.98902056	     -5.07416015	     -3.90378820	     14.26482100	      4.58674894	    -21.55333349	     14.39972590	     46.66495643	      0.00000000	     34.32000000
      0.33000000	      1.48455499	     -7.57963920	    -11.16716756	      0.00000000	      0.00000000	      0.00000000	    -18.58775188	     -3.96544800	     -4.89453642	     -3.87532678	     14.24696477	      4.56602758	    -21.52652220	     14.55157910	     45.70841038	      0.00000000	     34.32000000
      0.34000000	      1.74187704	     -7.70580670	    -11.14495823	      0.00000000	      0.00000000	      0.00000000	    -18.43064200	     -3.79795804	     -4.86181533	     -3.64995628	     13.90380327	      4.57828259	    -18.86240240	     15.42144431	     41.58078962	      0.00000000	     34.32000000
